# Blender 4.5.4 LTS
# www.blender.org
mtllib kubus.mtl
o depan
v 1.000000 0.000856 2.821262
v 1.000000 0.000856 0.821262
v -1.000000 0.000856 2.821262
v -1.000000 0.000856 0.821262
v -1.000000 0.095806 0.821262
v -1.000000 0.095806 2.821262
v 1.000000 0.095806 2.821262
v 1.000000 0.095806 0.821262
vn -0.0000 1.0000 -0.0000
vn -0.0000 -1.0000 -0.0000
vn -0.0000 -0.0000 1.0000
vn -1.0000 -0.0000 -0.0000
vn -0.0000 -0.0000 -1.0000
vn 1.0000 -0.0000 -0.0000
vt 0.375000 0.750000
vt 0.375000 1.000000
vt 0.625000 1.000000
vt 0.625000 0.750000
s 0
usemtl Material
f 2/1/1 4/2/1 3/3/1 1/4/1
f 8/1/2 7/4/2 6/3/2 5/2/2
f 4/2/3 2/1/3 8/1/3 5/2/3
f 2/1/4 1/4/4 7/4/4 8/1/4
f 1/4/5 3/3/5 6/3/5 7/4/5
f 3/3/6 4/2/6 5/2/6 6/3/6
o belakag
v 1.000000 0.000856 -3.365610
v 1.000000 0.000856 -1.365610
v -1.000000 0.000856 -3.365610
v -1.000000 0.000856 -1.365610
v 1.000000 0.095806 -1.365610
v -1.000000 0.095806 -1.365610
v 1.000000 0.095806 -3.365610
v -1.000000 0.095806 -3.365610
vn -0.0000 1.0000 -0.0000
vn -0.0000 -1.0000 -0.0000
vn -0.0000 -0.0000 1.0000
vn -1.0000 -0.0000 -0.0000
vn 1.0000 -0.0000 -0.0000
vn -0.0000 -0.0000 -1.0000
vt 0.375000 0.250000
vt 0.375000 0.500000
vt 0.625000 0.500000
vt 0.625000 0.250000
s 0
usemtl Material
f 12/5/7 10/6/7 9/7/7 11/8/7
f 14/5/8 16/8/8 15/7/8 13/6/8
f 11/8/9 9/7/9 15/7/9 16/8/9
f 9/7/10 10/6/10 13/6/10 15/7/10
f 12/5/11 11/8/11 16/8/11 14/5/11
f 10/6/12 12/5/12 14/5/12 13/6/12
o kanan
v 3.108219 0.000856 -1.283636
v 1.108220 0.000856 -1.283636
v 3.108219 0.000856 0.716364
v 1.108220 0.000856 0.716364
v 3.108219 0.095806 -1.283636
v 1.108220 0.095806 -1.283636
v 3.108219 0.095806 0.716364
v 1.108220 0.095806 0.716364
vn -0.0000 1.0000 -0.0000
vn -0.0000 -1.0000 -0.0000
vn 1.0000 -0.0000 -0.0000
vn -0.0000 -0.0000 -1.0000
vn -1.0000 -0.0000 -0.0000
vn -0.0000 -0.0000 1.0000
vt 0.375000 0.500000
vt 0.375000 0.750000
vt 0.625000 0.750000
vt 0.625000 0.500000
s 0
usemtl Material
f 18/9/13 20/10/13 19/11/13 17/12/13
f 22/9/14 21/12/14 23/11/14 24/10/14
f 20/10/15 18/9/15 22/9/15 24/10/15
f 19/11/16 20/10/16 24/10/16 23/11/16
f 17/12/17 19/11/17 23/11/17 21/12/17
f 18/9/18 17/12/18 21/12/18 22/9/18
o kiri
v -3.120050 0.000856 -1.283636
v -1.120050 0.000856 -1.283636
v -3.120050 0.000856 0.716364
v -1.120050 0.000856 0.716364
v -1.120050 0.095806 -1.283636
v -1.120050 0.095806 0.716364
v -3.120050 0.095806 0.716364
v -3.120050 0.095806 -1.283636
vn -0.0000 1.0000 -0.0000
vn -0.0000 -1.0000 -0.0000
vn 1.0000 -0.0000 -0.0000
vn -0.0000 -0.0000 -1.0000
vn -0.0000 -0.0000 1.0000
vn -1.0000 -0.0000 -0.0000
vt 0.375000 0.000000
vt 0.375000 0.250000
vt 0.625000 0.250000
vt 0.625000 0.000000
s 0
usemtl Material
f 28/13/19 26/14/19 25/15/19 27/16/19
f 30/13/20 31/16/20 32/15/20 29/14/20
f 27/16/21 25/15/21 32/15/21 31/16/21
f 28/13/22 27/16/22 31/16/22 30/13/22
f 25/15/23 26/14/23 29/14/23 32/15/23
f 26/14/24 28/13/24 30/13/24 29/14/24
o atas
v -1.000000 0.000856 -5.460700
v -1.000000 0.000856 -3.460700
v 1.000000 0.000856 -5.460700
v 1.000000 0.000856 -3.460700
v -1.000000 0.095806 -3.460700
v 1.000000 0.095806 -3.460700
v -1.000000 0.095806 -5.460700
v 1.000000 0.095806 -5.460700
vn -0.0000 1.0000 -0.0000
vn -0.0000 -1.0000 -0.0000
vn 1.0000 -0.0000 -0.0000
vn -1.0000 -0.0000 -0.0000
vn -0.0000 -0.0000 -1.0000
vn -0.0000 -0.0000 1.0000
vt 0.625000 0.500000
vt 0.625000 0.750000
vt 0.875000 0.750000
vt 0.875000 0.500000
s 0
usemtl Material
f 33/17/25 34/18/25 36/19/25 35/20/25
f 39/17/26 40/20/26 38/19/26 37/18/26
f 34/18/27 33/17/27 39/17/27 37/18/27
f 35/20/28 36/19/28 38/19/28 40/20/28
f 36/19/29 34/18/29 37/18/29 38/19/29
f 33/17/30 35/20/30 40/20/30 39/17/30
o bawah
v 1.000000 0.000856 -1.283636
v 1.000000 0.000856 0.716364
v -1.000000 0.000856 -1.283636
v -1.000000 0.000856 0.716364
v -1.000000 0.095806 -1.283636
v -1.000000 0.095806 0.716364
v 1.000000 0.095806 -1.283636
v 1.000000 0.095806 0.716364
vn -0.0000 1.0000 -0.0000
vn -0.0000 -1.0000 -0.0000
vn 1.0000 -0.0000 -0.0000
vn -1.0000 -0.0000 -0.0000
vn -0.0000 -0.0000 1.0000
vn -0.0000 -0.0000 -1.0000
vt 0.125000 0.500000
vt 0.125000 0.750000
vt 0.375000 0.750000
vt 0.375000 0.500000
s 0
usemtl Material
f 43/21/31 44/22/31 42/23/31 41/24/31
f 45/21/32 47/24/32 48/23/32 46/22/32
f 44/22/33 43/21/33 45/21/33 46/22/33
f 41/24/34 42/23/34 48/23/34 47/24/34
f 43/21/35 41/24/35 47/24/35 45/21/35
f 42/23/36 44/22/36 46/22/36 48/23/36
